<svg width="97" height="96" viewBox="0 0 97 96" fill="none" xmlns="http://www.w3.org/2000/svg">
<circle cx="48.5" cy="48" r="48" fill="#FCDAD7"/>
<path d="M56.0613 43.0613L51.1206 48L56.0613 52.9387C56.2006 53.0781 56.3112 53.2436 56.3866 53.4257C56.462 53.6077 56.5008 53.8029 56.5008 54C56.5008 54.1971 56.462 54.3923 56.3866 54.5743C56.3112 54.7564 56.2006 54.9219 56.0613 55.0613C55.9219 55.2006 55.7564 55.3112 55.5744 55.3866C55.3923 55.462 55.1971 55.5008 55 55.5008C54.8029 55.5008 54.6078 55.462 54.4257 55.3866C54.2436 55.3112 54.0781 55.2006 53.9388 55.0613L49 50.1206L44.0613 55.0613C43.9219 55.2006 43.7564 55.3112 43.5744 55.3866C43.3923 55.462 43.1971 55.5008 43 55.5008C42.8029 55.5008 42.6078 55.462 42.4257 55.3866C42.2436 55.3112 42.0781 55.2006 41.9388 55.0613C41.7994 54.9219 41.6888 54.7564 41.6134 54.5743C41.538 54.3923 41.4992 54.1971 41.4992 54C41.4992 53.8029 41.538 53.6077 41.6134 53.4257C41.6888 53.2436 41.7994 53.0781 41.9388 52.9387L46.8794 48L41.9388 43.0613C41.6573 42.7798 41.4992 42.398 41.4992 42C41.4992 41.602 41.6573 41.2202 41.9388 40.9387C42.2202 40.6573 42.602 40.4992 43 40.4992C43.3981 40.4992 43.7798 40.6573 44.0613 40.9387L49 45.8794L53.9388 40.9387C54.0781 40.7994 54.2436 40.6888 54.4257 40.6134C54.6078 40.538 54.8029 40.4992 55 40.4992C55.1971 40.4992 55.3923 40.538 55.5744 40.6134C55.7564 40.6888 55.9219 40.7994 56.0613 40.9387C56.2006 41.0781 56.3112 41.2436 56.3866 41.4257C56.462 41.6077 56.5008 41.8029 56.5008 42C56.5008 42.1971 56.462 42.3923 56.3866 42.5743C56.3112 42.7564 56.2006 42.9219 56.0613 43.0613ZM68.5 48C68.5 51.8567 67.3564 55.6269 65.2137 58.8336C63.071 62.0404 60.0255 64.5397 56.4623 66.0156C52.8992 67.4916 48.9784 67.8777 45.1957 67.1253C41.4131 66.3729 37.9386 64.5157 35.2114 61.7886C32.4843 59.0615 30.6271 55.5869 29.8747 51.8043C29.1223 48.0216 29.5084 44.1008 30.9844 40.5377C32.4603 36.9745 34.9596 33.929 38.1664 31.7863C41.3731 29.6437 45.1433 28.5 49 28.5C54.1701 28.5055 59.1268 30.5617 62.7826 34.2174C66.4383 37.8732 68.4945 42.83 68.5 48ZM65.5 48C65.5 44.7366 64.5323 41.5465 62.7193 38.8331C60.9062 36.1197 58.3293 34.0048 55.3143 32.756C52.2993 31.5071 48.9817 31.1804 45.781 31.817C42.5803 32.4537 39.6403 34.0252 37.3327 36.3327C35.0252 38.6403 33.4537 41.5803 32.8171 44.781C32.1804 47.9817 32.5072 51.2993 33.756 54.3143C35.0048 57.3293 37.1197 59.9062 39.8331 61.7192C42.5465 63.5323 45.7366 64.5 49 64.5C53.3746 64.495 57.5685 62.7551 60.6618 59.6618C63.7551 56.5685 65.495 52.3745 65.5 48Z" fill="#C8392F"/>
</svg>
