<svg width="97" height="96" viewBox="0 0 97 96" fill="none" xmlns="http://www.w3.org/2000/svg">
<circle cx="48.5" cy="48" r="48" fill="#FCDAD7"/>
<path d="M65.5 33H58V31.5C58 30.3065 57.5259 29.1619 56.682 28.318C55.8381 27.4741 54.6935 27 53.5 27H44.5C43.3065 27 42.1619 27.4741 41.318 28.318C40.4741 29.1619 40 30.3065 40 31.5V33H32.5C32.1022 33 31.7206 33.158 31.4393 33.4393C31.158 33.7206 31 34.1022 31 34.5C31 34.8978 31.158 35.2794 31.4393 35.5607C31.7206 35.842 32.1022 36 32.5 36H34V63C34 63.7957 34.3161 64.5587 34.8787 65.1213C35.4413 65.6839 36.2044 66 37 66H61C61.7956 66 62.5587 65.6839 63.1213 65.1213C63.6839 64.5587 64 63.7957 64 63V36H65.5C65.8978 36 66.2794 35.842 66.5607 35.5607C66.842 35.2794 67 34.8978 67 34.5C67 34.1022 66.842 33.7206 66.5607 33.4393C66.2794 33.158 65.8978 33 65.5 33ZM43 31.5C43 31.1022 43.158 30.7206 43.4393 30.4393C43.7206 30.158 44.1022 30 44.5 30H53.5C53.8978 30 54.2794 30.158 54.5607 30.4393C54.842 30.7206 55 31.1022 55 31.5V33H43V31.5ZM61 63H37V36H61V63ZM46 43.5V55.5C46 55.8978 45.842 56.2794 45.5607 56.5607C45.2794 56.842 44.8978 57 44.5 57C44.1022 57 43.7206 56.842 43.4393 56.5607C43.158 56.2794 43 55.8978 43 55.5V43.5C43 43.1022 43.158 42.7206 43.4393 42.4393C43.7206 42.158 44.1022 42 44.5 42C44.8978 42 45.2794 42.158 45.5607 42.4393C45.842 42.7206 46 43.1022 46 43.5ZM55 43.5V55.5C55 55.8978 54.842 56.2794 54.5607 56.5607C54.2794 56.842 53.8978 57 53.5 57C53.1022 57 52.7206 56.842 52.4393 56.5607C52.158 56.2794 52 55.8978 52 55.5V43.5C52 43.1022 52.158 42.7206 52.4393 42.4393C52.7206 42.158 53.1022 42 53.5 42C53.8978 42 54.2794 42.158 54.5607 42.4393C54.842 42.7206 55 43.1022 55 43.5Z" fill="#C8392F"/>
</svg>
